<?xml version="1.0" encoding="UTF-8" standalone="no"?>
<svg
   id="svg1"
   width="297mm"
   height="210mm"
   version="1.1"
   viewBox="0 0 297 210"
   sodipodi:docname="A4_Landscape_Default_INK.svg"
   inkscape:version="1.3.2 (091e20e, 2023-11-25, custom)"
   xmlns:inkscape="http://www.inkscape.org/namespaces/inkscape"
   xmlns:sodipodi="http://sodipodi.sourceforge.net/DTD/sodipodi-0.dtd"
   xmlns="http://www.w3.org/2000/svg"
   xmlns:svg="http://www.w3.org/2000/svg"
   xmlns:rdf="http://www.w3.org/1999/02/22-rdf-syntax-ns#"
   xmlns:cc="http://creativecommons.org/ns#"
   xmlns:dc="http://purl.org/dc/elements/1.1/"
   xmlns:freecad="https://www.freecad.org/wiki/index.php?title=Svg_Namespace">
  <defs
     id="defs1" />
  <sodipodi:namedview
     id="namedview1"
     pagecolor="#ffffff"
     bordercolor="#000000"
     borderopacity="0.25"
     inkscape:showpageshadow="2"
     inkscape:pageopacity="0.0"
     inkscape:pagecheckerboard="0"
     inkscape:deskcolor="#d1d1d1"
     inkscape:document-units="mm"
     inkscape:zoom="1.8847266"
     inkscape:cx="939.65881"
     inkscape:cy="671.18487"
     inkscape:window-width="1920"
     inkscape:window-height="1009"
     inkscape:window-x="-8"
     inkscape:window-y="-8"
     inkscape:window-maximized="1"
     inkscape:current-layer="svg1"
     showgrid="false"
     showguides="true">
    <inkscape:grid
       id="grid1"
       units="mm"
       originx="0"
       originy="0"
       spacingx="1"
       spacingy="1"
       empcolor="#0099e5"
       empopacity="0.30196078"
       color="#0099e5"
       opacity="0.15"
       empspacing="5"
       dotted="false"
       gridanglex="30"
       gridanglez="30"
       visible="false" />
  </sodipodi:namedview>
  <metadata
     id="metadata1">
    <rdf:RDF>
      <cc:Work
         rdf:about="">
        <dc:format>image/svg+xml</dc:format>
        <dc:type
           rdf:resource="http://purl.org/dc/dcmitype/StillImage" />
        <dc:title />
      </cc:Work>
    </rdf:RDF>
  </metadata>
  <!-- Working Area 05x 05y - 292x 205y -->
  <rect
     style="display:inline;fill:none;stroke:#000000;stroke-width:0.35;stroke-opacity:1"
     id="rect100"
     width="287"
     height="200"
     x="5"
     y="5"
     sodipodi:insensitive="true" />
  <!-- Title Area 200x 165y - 292x 205y  -->
  <rect
     style="display:inline;fill:none;stroke:#000000;stroke-width:0.35;stroke-opacity:1"
     id="rect200"
     width="92"
     height="40"
     x="200"
     y="165"
     sodipodi:insensitive="true" />
  <path
     id="path200"
     d="M 200,193.5 H 292"
     fill="none"
     stroke="#000000"
     stroke-width="0.35"
     sodipodi:insensitive="true" />
  <path
     id="path250"
     d="M 230,165 V 205"
     fill="none"
     stroke="#000000"
     stroke-width="0.35"
     sodipodi:insensitive="true" />
  <path
     id="path251"
     d="M 280,193.5 V 205"
     fill="none"
     stroke="#000000"
     stroke-width="0.35"
     sodipodi:insensitive="true" />
  <text
     x="265"
     y="196"
     id="textSheet1"
     font-size="2.2px"
     font-family="'Trebuchet MS'"><tspan
       id="tspanSheet1">SHEET</tspan></text>
  <text
     x="265"
     y="201"
     id="textSheet2"
     font-size="3.75px"
     font-family="'Trebuchet MS'"
     freecad:autofill="sheet"
     freecad:editable="sheet"><tspan
       id="tspanSheet2">Sheet</tspan></text>
  <text
     x="235.5"
     y="196"
     id="textDrawing1"
     font-size="2.2px"
     font-family="'Trebuchet MS'"><tspan
       id="tspanDrawing1">DRAWING</tspan></text>
  <text
     x="235.5"
     y="201.5"
     id="textDrawing2"
     font-size="3.75px"
     font-family="'Trebuchet MS'"
     freecad:editable="drawing"><tspan
       id="tspanDrawing2">Drawing Num</tspan></text>
  <text
     x="202"
     y="196"
     id="textScale1"
     font-size="2.2px"
     font-family="'Trebuchet MS'"><tspan
       id="tspanScale1">SCALE</tspan></text>
  <text
     x="202"
     y="201.5"
     id="textScale2"
     font-size="3.75px"
     font-family="'Trebuchet MS'"
     freecad:autofill="scale"
     freecad:editable="scale"><tspan
       id="tspanScale2">Scale</tspan></text>
  <text
     x="216.5"
     y="196"
     id="textWeight1"
     font-size="2.2px"
     font-family="'Trebuchet MS'"><tspan
       id="tspanWeight1">WEIGHT</tspan></text>
  <text
     x="216.5"
     y="201.5"
     id="textWeight2"
     font-size="3.75px"
     font-family="'Trebuchet MS'"
     freecad:editable="weight"><tspan
       id="tspanWeight2">Weight</tspan></text>
  <text
     x="201.5"
     y="168"
     id="textAuthor1"
     font-size="2.2px"
     font-family="'Trebuchet MS'"><tspan
       id="tspanAuthor1">AUTHOR</tspan></text>
  <text
     x="201.5"
     y="171"
     id="textAuthor2"
     font-size="3.75px"
     font-family="'Trebuchet MS'"
     freecad:autofill="author"
     freecad:editable="author"><tspan
       id="tspanAuthor2">Designed by Name</tspan></text>
  <text
     x="201.5"
     y="174.5"
     id="textDate1"
     font-size="2.2px"
     font-family="'Trebuchet MS'"><tspan
       id="tspanDate1">DATE</tspan></text>
  <text
     x="201.5"
     y="178.5"
     id="textDate2"
     font-size="3.75px"
     font-family="'Trebuchet MS'"
     freecad:autofill="date"
     freecad:editable="date"><tspan
       id="tspanDate2">Date</tspan></text>
  <text
     x="201.5"
     y="184.5"
     id="textSize1"
     font-size="2.2px"
     font-family="'Trebuchet MS'"><tspan
       id="tspanSize1">SIZE</tspan></text>
  <text
     x="201.5"
     y="187.5"
     id="textSize2"
     font-size="3.75px"
     font-family="'Trebuchet MS'"><tspan
       id="tspanSize2">A4</tspan></text>
  <text
     x="232"
     y="171"
     id="textTitle1"
     font-size="5px"
     font-family="'Trebuchet MS'"
     freecad:autofill="title"
     freecad:editable="title"><tspan
       id="tspanTitle1">Title of File Text</tspan></text>
  <text
     x="232"
     y="179"
     id="textSubtitle1"
     font-size="4px"
     font-family="'Trebuchet MS'"
     freecad:editable="subtitle"><tspan
       id="tspanSubtitle1">Subtitle of File free Text</tspan></text>
  <g
     id="gIcon1"
     transform="matrix(0.16,0,0,0.16,315.5,193.5)"
     fill="none"
     stroke="#000000"
     stroke-width="2">
    <path
       id="path98"
       d="m -216.14,7.2708 v 55.5 h 12.375 v -21.719 h 8.75 v -8.5625 h -8.75 v -9.2419 h 21.555 V 7.3014 l -33.93,-0.03125 z" />
    <path
       id="path99"
       d="m -161.05,23.812 -7.1983,4.1299 -3.1787,-1.1031 -3.0327,-7.7507 -4.7707,0.2507 -2.176,8.0147 -3.0455,1.4584 -7.5959,-3.3228 -3.2083,3.5652 4.1299,7.1983 -1.1286,3.1694 -7.7507,3.0327 0.27618,4.78 8.0147,2.176 1.4584,3.0455 -3.3483,7.5866 3.5652,3.2083 7.1982,-4.1299 3.1949,1.1379 3.0073,7.7414 4.8054,-0.26688 2.1505,-8.024 3.0455,-1.4584 7.6121,3.3576 3.2083,-3.5652 -4.1299,-7.1983 1.1124,-3.2042 7.7414,-3.0073 -0.24138,-4.7961 -8.024,-2.1505 -1.4584,-3.0455 3.3321,-7.6214 z m -10.781,11.804 1.4776,0.85736 1.2802,1.1607 1.0249,1.3852 0.73729,1.5401 0.43349,1.6602 0.0718,1.7015 -0.24575,1.701 -0.56084,1.6148 -0.89215,1.4938 -1.1259,1.264 -1.3852,1.0249 -1.5401,0.73729 -1.6602,0.43348 -1.7108,0.09731 -1.701,-0.24573 -1.6148,-0.56085 -1.4938,-0.89215 -1.2548,-1.1514 -1.0342,-1.3597 -0.73731,-1.5401 -0.42417,-1.6857 -0.0973,-1.7108 0.24573,-1.701 0.56086,-1.6148 0.88284,-1.4684 1.1353,-1.2895 1.3852,-1.0249 1.5401,-0.73729 1.6857,-0.42417 1.7015,-0.07182 1.701,0.24573 1.6148,0.56085 z" />
  </g>
</svg>
