<?xml version="1.0" encoding="UTF-8" standalone="no"?>
<svg
   id="svg2"
   width="297mm"
   height="210mm"
   version="1.1"
   viewBox="0 0 297 210"
   xmlns="http://www.w3.org/2000/svg"
   xmlns:svg="http://www.w3.org/2000/svg"
   xmlns:rdf="http://www.w3.org/1999/02/22-rdf-syntax-ns#"
   xmlns:cc="http://creativecommons.org/ns#"
   xmlns:dc="http://purl.org/dc/elements/1.1/"
   xmlns:freecad="https://www.freecad.org/wiki/index.php?title=Svg_Namespace">
  <defs
     id="defs1" />
  <metadata
     id="metadata849">
    <rdf:RDF>
      <cc:Work
         rdf:about="">
        <dc:format>image/svg+xml</dc:format>
        <dc:type
           rdf:resource="http://purl.org/dc/dcmitype/StillImage" />
        <dc:title />
      </cc:Work>
    </rdf:RDF>
  </metadata>
  <!-- Working Area 05 05 292 205 -->
  <rect
     style="fill:none;stroke:#000000;stroke-width:0.35;stroke-opacity:1"
     id="rect6"
     width="287"
     height="200"
     x="5"
     y="5" />
  <!-- Title Area 147 153 287 200 -->
  <g
     id="g4419"
     transform="translate(-153.06 .054004)">
    <path
       id="path92"
       d="m300.15 199.95h140.09"
       fill="none"
       stroke="#000"
       stroke-width=".35" />
    <path
       id="path94"
       d="m300.2 199.99v-46.69"
       fill="none"
       stroke="#000"
       stroke-width=".35" />
    <path
       id="path96"
       d="m300.15 153.3h140.09"
       fill="none"
       stroke="#000"
       stroke-width=".35" />
    <path
       id="path98"
       d="m440.2 153.26v46.727"
       fill="none"
       stroke="#000"
       stroke-width=".35" />
    <path
       id="path100"
       d="m300.15 195.95h119.07"
       fill="none"
       stroke="#000"
       stroke-width=".35" />
    <path
       id="path102"
       d="m300.15 182.95h119.07"
       fill="none"
       stroke="#000"
       stroke-width=".35" />
    <path
       id="path104"
       d="m300.15 169.95h119.07"
       fill="none"
       stroke="#000"
       stroke-width=".35" />
    <path
       id="path108"
       d="m419.17 193.29h21.055"
       fill="none"
       stroke="#000"
       stroke-width=".35" />
    <path
       id="path110"
       d="m419.17 186.62h21.055"
       fill="none"
       stroke="#000"
       stroke-width=".35" />
    <path
       id="path112"
       d="m419.17 179.95h21.055"
       fill="none"
       stroke="#000"
       stroke-width=".35" />
    <path
       id="path114"
       d="m419.17 173.29h21.055"
       fill="none"
       stroke="#000"
       stroke-width=".35" />
    <path
       id="path116"
       d="m419.17 166.62h21.055"
       fill="none"
       stroke="#000"
       stroke-width=".35" />
    <path
       id="path118"
       d="m419.17 159.95h21.055"
       fill="none"
       stroke="#000"
       stroke-width=".35" />
    <path
       id="path124"
       d="m317.7 195.95v-26"
       fill="none"
       stroke="#000"
       stroke-width=".35" />
    <path
       id="path126"
       d="m338.2 195.99v-42.795"
       fill="none"
       stroke="#000"
       stroke-width=".35" />
    <path
       id="path128"
       d="m400.2 195.95v-13"
       fill="none"
       stroke="#000"
       stroke-width=".35" />
    <path
       id="path130"
       d="m419.2 199.99v-46.727"
       fill="none"
       stroke="#000"
       stroke-width=".35" />
    <path
       id="path132"
       d="m424.12 199.99v-46.727"
       fill="none"
       stroke="#000"
       stroke-width=".35" />
    <g
       id="g538"
       transform="matrix(1 0 0 1 80.199 -87.047)"
       fill="none"
       stroke="#000"
       stroke-width=".13">
      <path
         id="path540"
         d="m221.31 271.59h-0.197l0.044 0.23 0.108 0.168 0.166 0.102 0.225 0.036 0.223-0.034 0.166-0.095 0.106-0.149 0.039-0.197-0.033-0.177-0.09-0.115-0.147-0.075-0.197-0.057-0.169-0.041-0.11-0.047-0.063-0.069-0.019-0.109 0.019-0.097 0.057-0.073 0.086-0.05 0.119-0.017 0.121 0.021 0.095 0.059 0.063 0.097 0.03 0.132h0.197v-4e-3l-0.035-0.204-0.101-0.151-0.16-0.095-0.217-0.032-0.194 0.032-0.151 0.091-0.098 0.14-0.034 0.182 0.028 0.162 0.082 0.11 0.13 0.074 0.177 0.056 0.175 0.049 0.132 0.048 0.08 0.069 0.028 0.113-0.026 0.114-0.067 0.087-0.102 0.054-0.131 0.017-0.147-0.024-0.113-0.069-0.071-0.112-0.024-0.15zm1.993-0.062-0.043 0.181-0.072 0.13-0.099 0.08-0.117 0.026-0.14-0.039-0.111-0.117-0.073-0.19-0.024-0.264 0.024-0.261 0.071-0.192 0.111-0.117 0.142-0.041 0.104 0.021 0.089 0.061 0.069 0.097 0.047 0.134h0.206l-0.065-0.205-0.113-0.156-0.153-0.097-0.184-0.035-0.229 0.054-0.175 0.152-0.112 0.248-0.039 0.337 0.039 0.338 0.112 0.248 0.175 0.154 0.229 0.051 0.201-0.041 0.162-0.114 0.115-0.188 0.06-0.255h-0.207zm0.294 0.557h0.199l0.157-0.441h0.599l0.158 0.441h0.203l-0.549-1.502h-0.22l-0.547 1.502zm0.426-0.624 0.231-0.662 0.231 0.662h-0.462zm1.093 0.624h0.964v-0.181h-0.765v-1.319h-0.199v1.5zm1.286 0h0.951v-0.181h-0.752v-0.508h0.67v-0.179h-0.67v-0.45h0.735v-0.182h-0.934v1.5z"
         fill="#000"
         fill-rule="evenodd"
         stroke="none" />
    </g>
    <g
       id="g546"
       transform="matrix(1 0 0 1 78.041 -87.047)"
       fill="none"
       stroke="#000"
       stroke-width=".13">
      <path
         id="path548"
         d="m241.24 272.08h0.19l0.216-1.301 0.223 1.301h0.182l0.263-1.502h-0.173l-0.186 1.278-0.213-1.278h-0.189l-0.209 1.278-0.186-1.278h-0.177l0.259 1.502zm1.256 0h0.951v-0.181h-0.752v-0.508h0.67v-0.179h-0.67v-0.45h0.735v-0.182h-0.934v1.5zm1.655-0.181h-0.276v0.181h0.752v-0.181h-0.277v-1.137h0.277v-0.182h-0.752v0.182h0.276v1.137zm1.797-0.02 0.036 0.201h0.108v-0.81h-0.546v0.184h0.337v0.013l-0.026 0.198-0.069 0.147-0.106 0.093-0.132 0.031-0.147-0.039-0.115-0.117-0.073-0.192-0.026-0.264 0.024-0.262 0.073-0.192 0.117-0.117 0.158-0.041 0.108 0.022 0.088 0.06 0.065 0.102 0.037 0.136h0.214l-0.056-0.207-0.106-0.156-0.149-0.095-0.188-0.035-0.247 0.054-0.186 0.158-0.118 0.249-0.042 0.33 0.042 0.333 0.118 0.249 0.175 0.158 0.221 0.051 0.123-0.017 0.11-0.043 0.095-0.076 0.083-0.106zm0.404 0.201h0.201v-0.704h0.601v0.704h0.199v-1.5h-0.199v0.612h-0.601v-0.612h-0.201v1.5zm1.703 0h0.199v-1.318h0.454v-0.182h-1.109v0.182h0.456v1.318zm2.86 0.418h0.136l-0.124-0.23-0.086-0.239-0.054-0.253-0.017-0.255 0.017-0.255 0.054-0.251 0.086-0.242 0.124-0.229h-0.136l-0.158 0.237-0.111 0.236-0.064 0.246-0.02 0.258 0.02 0.259 0.064 0.244 0.111 0.236 0.158 0.238zm0.721-0.418h0.191v-0.408l0.198-0.192 0.342 0.6h0.214l-0.426-0.732 0.437-0.428h-0.24l-0.525 0.523v-0.914h-0.191v1.551zm2.179-0.051v-1.109h-0.181v0.188l-0.15-0.171-0.09-0.043-0.102-0.015-0.184 0.043-0.142 0.121-0.093 0.194-0.033 0.262 0.033 0.264 0.093 0.194 0.142 0.123 0.184 0.041 0.104-0.015 0.086-0.039 0.152-0.164v0.164l-0.018 0.13-0.047 0.093-0.091 0.054-0.136 0.02-0.119-0.013-0.084-0.033-0.05-0.056-0.015-0.076h-0.184v9e-3l0.028 0.138 0.087 0.104 0.138 0.067 0.188 0.024 0.225-0.033 0.149-0.09 0.084-0.158 0.026-0.218zm-0.778-0.53 0.019-0.192 0.059-0.143 0.091-0.084 0.121-0.031 0.127 0.031 0.095 0.084 0.059 0.143 0.021 0.192-0.021 0.197-0.059 0.14-0.095 0.087-0.127 0.028-0.121-0.028-0.091-0.087-0.059-0.142-0.019-0.195zm1.468 0.999 0.155-0.238 0.11-0.236 0.065-0.244 0.022-0.259-0.022-0.258-0.065-0.246-0.11-0.236-0.155-0.237h-0.137l0.121 0.229 0.087 0.242 0.052 0.251 0.019 0.255-0.019 0.255-0.052 0.253-0.089 0.239-0.119 0.23h0.137z"
         fill="#000"
         fill-rule="evenodd"
         stroke="none" />
    </g>
    <g
       id="g550"
       transform="matrix(1 0 0 1 73.175 -87.047)"
       fill="none"
       stroke="#000"
       stroke-width=".13">
      <path
         id="path552"
         d="m266.65 270.58h-0.499v1.5h0.499l0.236-0.047 0.175-0.145 0.108-0.236 0.039-0.322-0.035-0.328-0.043-0.13-0.06-0.104-0.175-0.14-0.115-0.035-0.13-0.013zm-0.015 0.18 0.165 0.032 0.112 0.1 0.067 0.177 0.022 0.261-0.024 0.253-0.067 0.178-0.115 0.105-0.16 0.035h-0.283v-1.141h0.283zm0.837 1.32h0.201v-0.633h0.205l0.151 7e-3 0.095 0.03 0.052 0.071 0.022 0.128 0.011 0.194 0.013 0.128 0.026 0.075h0.227v-0.041l-0.05-0.06-0.017-0.113-0.016-0.242-0.036-0.179-0.05-0.056-0.078-0.041 0.087-0.054 0.06-0.076 0.039-0.095 0.013-0.115-0.03-0.181-0.087-0.136-0.142-0.082-0.195-0.029h-0.501v1.5zm0.445-1.316 0.132 0.013 0.093 0.041 0.058 0.076 0.02 0.119-0.022 0.125-0.058 0.076-0.1 0.039-0.136 0.01h-0.231v-0.499h0.244zm0.681 1.316h0.199l0.157-0.441h0.599l0.158 0.441h0.203l-0.549-1.502h-0.22l-0.547 1.502zm0.426-0.624 0.231-0.662 0.231 0.662h-0.462zm1.124 0.624h0.19l0.216-1.301 0.222 1.301h0.182l0.264-1.502h-0.173l-0.186 1.278-0.214-1.278h-0.188l-0.21 1.278-0.186-1.278h-0.177l0.26 1.502zm1.61-0.181h-0.277v0.181h0.752v-0.181h-0.276v-1.137h0.276v-0.182h-0.752v0.182h0.277v1.137zm0.908 0.181h0.179v-1.229l0.575 1.229h0.231v-1.5h-0.181v1.23l-0.569-1.23h-0.235v1.5zm2.189-0.201 0.037 0.201h0.108v-0.81h-0.547v0.184h0.337v0.013l-0.026 0.198-0.069 0.147-0.106 0.093-0.132 0.031-0.147-0.039-0.114-0.117-0.074-0.192-0.026-0.264 0.024-0.262 0.074-0.192 0.116-0.117 0.158-0.041 0.108 0.022 0.089 0.06 0.065 0.102 0.036 0.136h0.214l-0.056-0.207-0.106-0.156-0.149-0.095-0.188-0.035-0.246 0.054-0.186 0.158-0.119 0.249-0.041 0.33 0.041 0.333 0.119 0.249 0.175 0.158 0.22 0.051 0.124-0.017 0.11-0.043 0.095-0.076 0.082-0.106zm1.714 0.201h0.179v-1.229l0.575 1.229h0.232v-1.5h-0.182v1.23l-0.568-1.23h-0.236v1.5zm1.277-0.57 0.031 0.27 0.095 0.192 0.16 0.111 0.231 0.038 0.229-0.038 0.16-0.111 0.095-0.19 0.032-0.272v-0.93h-0.201v0.941l-0.019 0.183-0.058 0.132-0.1 0.078-0.138 0.026-0.143-0.026-0.099-0.078-0.059-0.129-0.017-0.186v-0.941h-0.199v0.93zm1.278 0.57h0.166v-1.361l0.281 1.361h0.186l0.279-1.361v1.361h0.168v-1.5h-0.263l-0.277 1.323-0.274-1.323h-0.266v1.5zm2.111-0.81 0.152-0.125 0.039-0.085 0.013-0.103-0.029-0.163-0.084-0.116-0.136-0.072-0.19-0.026h-0.534v1.5h0.564l0.201-0.03 0.149-0.088 0.093-0.141 0.033-0.19-0.02-0.128-0.052-0.106-0.084-0.077-0.115-0.05zm-0.276-0.067h-0.294v-0.443h0.311l0.117 0.013 0.082 0.039 0.05 0.067 0.017 0.099-0.02 0.1-0.051 0.069-0.089 0.043-0.123 0.013zm0.047 0.698h-0.341v-0.517h0.322l0.136 0.016 0.097 0.045 0.059 0.078 0.019 0.112-0.019 0.119-0.054 0.082-0.091 0.05-0.128 0.015zm0.806 0.179h0.951v-0.181h-0.752v-0.508h0.67v-0.179h-0.67v-0.45h0.735v-0.182h-0.934v1.5zm1.273 0h0.202v-0.633h0.205l0.151 7e-3 0.095 0.03 0.052 0.071 0.022 0.128 0.011 0.194 0.012 0.128 0.026 0.075h0.227v-0.041l-0.049-0.06-0.018-0.113-0.015-0.242-0.037-0.179-0.049-0.056-0.078-0.041 0.086-0.054 0.061-0.076 0.039-0.095 0.013-0.115-0.03-0.181-0.087-0.136-0.143-0.082-0.194-0.029h-0.502v1.5zm0.446-1.316 0.132 0.013 0.093 0.041 0.058 0.076 0.019 0.119-0.021 0.125-0.059 0.076-0.099 0.039-0.136 0.01h-0.231v-0.499h0.244z"
         fill="#000"
         fill-rule="evenodd"
         stroke="none" />
    </g>
    <g
       id="g554"
       transform="matrix(1 0 0 1 35.412 -87.047)"
       fill="none"
       stroke="#000"
       stroke-width=".13">
      <path
         id="path556"
         d="m366.31 271.59h-0.197l0.044 0.23 0.108 0.168 0.166 0.102 0.225 0.036 0.223-0.034 0.166-0.095 0.106-0.149 0.039-0.197-0.033-0.177-0.09-0.115-0.147-0.075-0.197-0.057-0.169-0.041-0.11-0.047-0.063-0.069-0.019-0.108 0.019-0.098 0.057-0.073 0.086-0.05 0.119-0.017 0.121 0.021 0.095 0.059 0.063 0.097 0.03 0.132h0.197v-4e-3l-0.035-0.204-0.101-0.151-0.16-0.095-0.217-0.032-0.194 0.032-0.151 0.091-0.098 0.14-0.034 0.182 0.028 0.162 0.082 0.11 0.13 0.074 0.177 0.056 0.175 0.049 0.132 0.048 0.08 0.069 0.028 0.113-0.026 0.114-0.067 0.087-0.102 0.054-0.131 0.017-0.147-0.024-0.113-0.069-0.071-0.112-0.024-0.15zm1.141 0.495h0.201v-0.704h0.601v0.704h0.199v-1.5h-0.199v0.612h-0.601v-0.612h-0.201v1.5zm1.349 0h0.951v-0.181h-0.752v-0.508h0.67v-0.179h-0.67v-0.45h0.735v-0.182h-0.934v1.5zm1.301 0h0.951v-0.181h-0.752v-0.508h0.67v-0.179h-0.67v-0.45h0.735v-0.182h-0.934v1.5zm1.656 0h0.199v-1.318h0.453v-0.182h-1.108v0.182h0.456v1.318z"
         fill="#000"
         fill-rule="evenodd"
         stroke="none" />
    </g>
    <g
       id="g558"
       transform="matrix(1 0 0 1 80.199 -87.047)"
       fill="none"
       stroke="#000"
       stroke-width=".13">
      <path
         id="path560"
         d="m221.31 258.59h-0.197l0.044 0.23 0.108 0.168 0.166 0.102 0.225 0.036 0.223-0.034 0.166-0.095 0.106-0.149 0.039-0.197-0.033-0.177-0.09-0.115-0.147-0.075-0.197-0.057-0.169-0.041-0.11-0.047-0.063-0.069-0.019-0.109 0.019-0.097 0.057-0.073 0.086-0.05 0.119-0.017 0.121 0.021 0.095 0.059 0.063 0.097 0.03 0.132h0.197v-4e-3l-0.035-0.204-0.101-0.151-0.16-0.095-0.217-0.032-0.194 0.032-0.151 0.091-0.098 0.14-0.034 0.182 0.028 0.162 0.082 0.11 0.13 0.074 0.177 0.056 0.175 0.049 0.132 0.048 0.08 0.069 0.028 0.113-0.026 0.114-0.067 0.087-0.102 0.054-0.131 0.017-0.147-0.024-0.113-0.069-0.071-0.112-0.024-0.15zm1.543 0.314h-0.276v0.181h0.752v-0.181h-0.277v-1.137h0.277v-0.182h-0.752v0.182h0.276v1.137zm0.863 0.181h1.076v-0.181h-0.839l0.839-1.148v-0.171h-1.018v0.182h0.793l-0.851 1.146v0.172zm1.385 0h0.951v-0.181h-0.752v-0.508h0.67v-0.179h-0.67v-0.45h0.735v-0.182h-0.934v1.5z"
         fill="#000"
         fill-rule="evenodd"
         stroke="none" />
    </g>
    <g
       id="g570"
       transform="matrix(1 0 0 1 80.199 -87.047)"
       fill="none"
       stroke="#000"
       stroke-width=".13">
      <path
         id="path572"
         d="m221.65 250.08h-0.499v1.5h0.499l0.236-0.047 0.175-0.145 0.108-0.236 0.039-0.322-0.035-0.328-0.043-0.13-0.06-0.104-0.175-0.14-0.115-0.035-0.13-0.013zm-0.015 0.18 0.165 0.032 0.112 0.1 0.067 0.177 0.022 0.261-0.024 0.253-0.067 0.178-0.115 0.105-0.16 0.035h-0.283v-1.141h0.283zm0.662 1.32h0.199l0.157-0.441h0.599l0.158 0.441h0.203l-0.549-1.502h-0.22l-0.547 1.502zm0.425-0.624 0.232-0.662 0.231 0.662h-0.463zm1.433 0.624h0.199v-1.318h0.454v-0.182h-1.109v0.182h0.456v1.318zm0.947 0h0.951v-0.181h-0.752v-0.508h0.67v-0.179h-0.67v-0.45h0.735v-0.182h-0.934v1.5zm1.606 0h0.298v-0.322h-0.298v0.322zm0-0.838h0.298v-0.322h-0.298v0.322z"
         fill="#000"
         fill-rule="evenodd"
         stroke="none" />
    </g>
    <g
       id="g578"
       transform="matrix(1 0 0 1 80.199 -72.994)"
       fill="none"
       stroke="#000"
       stroke-width=".13">
      <path
         id="path580"
         d="m221.65 227.58h-0.499v1.5h0.499l0.236-0.047 0.175-0.145 0.108-0.236 0.039-0.322-0.035-0.328-0.043-0.13-0.06-0.104-0.175-0.14-0.115-0.035-0.13-0.013zm-0.015 0.18 0.165 0.032 0.112 0.1 0.067 0.177 0.022 0.261-0.024 0.253-0.067 0.178-0.115 0.105-0.16 0.035h-0.283v-1.141h0.283zm0.865 1.32h0.951v-0.181h-0.752v-0.508h0.67v-0.179h-0.67v-0.45h0.735v-0.182h-0.934v1.5zm1.413-0.495h-0.196l0.043 0.23 0.108 0.168 0.166 0.102 0.225 0.036 0.223-0.034 0.166-0.095 0.106-0.149 0.039-0.197-0.032-0.177-0.091-0.115-0.147-0.075-0.197-0.057-0.168-0.041-0.111-0.047-0.062-0.069-0.02-0.109 0.02-0.097 0.056-0.073 0.086-0.05 0.119-0.017 0.121 0.021 0.095 0.059 0.063 0.097 0.03 0.132h0.197v-5e-3l-0.035-0.203-0.101-0.151-0.16-0.095-0.216-0.032-0.195 0.032-0.151 0.091-0.097 0.14-0.035 0.182 0.028 0.162 0.082 0.11 0.13 0.074 0.177 0.056 0.175 0.049 0.132 0.048 0.08 0.069 0.028 0.113-0.026 0.114-0.067 0.087-0.101 0.054-0.132 0.017-0.147-0.024-0.112-0.069-0.072-0.112-0.024-0.15zm1.544 0.314h-0.277v0.181h0.752v-0.181h-0.277v-1.137h0.277v-0.182h-0.752v0.182h0.277v1.137zm1.796-0.02 0.037 0.201h0.108v-0.81h-0.547v0.184h0.337v0.013l-0.026 0.198-0.069 0.147-0.106 0.093-0.132 0.031-0.147-0.039-0.114-0.117-0.074-0.192-0.026-0.264 0.024-0.262 0.073-0.192 0.117-0.117 0.158-0.041 0.108 0.022 0.089 0.06 0.064 0.102 0.037 0.136h0.214l-0.056-0.207-0.106-0.156-0.149-0.095-0.188-0.035-0.247 0.054-0.185 0.158-0.119 0.249-0.041 0.33 0.041 0.333 0.119 0.249 0.175 0.158 0.22 0.051 0.123-0.017 0.111-0.043 0.095-0.076 0.082-0.106zm0.413 0.201h0.179v-1.229l0.575 1.229h0.231v-1.5h-0.181v1.23l-0.569-1.23h-0.235v1.5zm1.34 0h0.951v-0.181h-0.752v-0.508h0.67v-0.179h-0.67v-0.45h0.734v-0.182h-0.933v1.5zm1.753-1.5h-0.5v1.5h0.5l0.235-0.047 0.175-0.145 0.108-0.236 0.039-0.322-0.034-0.328-0.044-0.13-0.06-0.104-0.175-0.14-0.115-0.035-0.129-0.013zm-0.016 0.18 0.165 0.032 0.112 0.1 0.067 0.177 0.022 0.261-0.024 0.253-0.067 0.178-0.115 0.105-0.16 0.035h-0.283v-1.141h0.283zm2.89 0.51 0.152-0.125 0.038-0.085 0.013-0.104-0.028-0.162-0.084-0.116-0.136-0.072-0.19-0.026h-0.534v1.5h0.564l0.201-0.03 0.149-0.088 0.093-0.141 0.032-0.19-0.019-0.128-0.052-0.106-0.084-0.077-0.115-0.05zm-0.276-0.067h-0.294v-0.443h0.311l0.117 0.013 0.082 0.039 0.049 0.067 0.018 0.099-0.02 0.1-0.052 0.069-0.088 0.043-0.123 0.013zm0.047 0.698h-0.341v-0.517h0.322l0.136 0.016 0.097 0.045 0.058 0.078 0.02 0.112-0.02 0.119-0.054 0.082-0.09 0.05-0.128 0.015zm1.373 0.179v-0.607l0.492-0.895h-0.224l-0.37 0.711-0.374-0.711h-0.24l0.515 0.908v0.594h0.201zm1.039 0h0.299v-0.322h-0.299v0.322zm0-0.838h0.299v-0.322h-0.299v0.322z"
         fill="#000"
         fill-rule="evenodd"
         stroke="none" />
    </g>
    <g
       id="g594"
       transform="matrix(1 0 0 1 34.119 -87.047)"
       fill="none"
       stroke="#000"
       stroke-width=".13">
      <path
         id="path596"
         d="m386.4 284.98h0.331l0.263-0.735h0.998l0.263 0.735h0.339l-0.915-2.503h-0.368l-0.911 2.503zm0.71-1.041 0.385-1.102 0.385 1.102h-0.77z"
         fill="#000"
         fill-rule="evenodd"
         stroke="none" />
    </g>
    <g
       id="g598"
       transform="matrix(1 0 0 1 31.608 -87.047)"
       fill="none"
       stroke="#000"
       stroke-width=".13">
      <path
         id="path600"
         d="m398.92 285.57v0.252h2.168v-0.252h-2.168z"
         fill="#000"
         fill-rule="evenodd"
         stroke="none" />
    </g>
    <g
       id="g602"
       transform="matrix(1 0 0 1 34.119 -87.047)"
       fill="none"
       stroke="#000"
       stroke-width=".13">
      <path
         id="path604"
         d="m387.95 276.96 0.252-0.209 0.065-0.141 0.022-0.173-0.047-0.27-0.14-0.194-0.227-0.119-0.317-0.044h-0.89v2.5h0.94l0.335-0.05 0.249-0.148 0.155-0.234 0.054-0.317-0.033-0.212-0.086-0.177-0.141-0.13-0.191-0.082zm-0.461-0.112h-0.49v-0.739h0.519l0.195 0.022 0.136 0.065 0.083 0.112 0.029 0.165-0.032 0.166-0.087 0.115-0.147 0.072-0.206 0.022zm0.079 1.163h-0.569v-0.86h0.537l0.227 0.025 0.162 0.075 0.097 0.13 0.033 0.187-0.033 0.199-0.09 0.136-0.151 0.083-0.213 0.025z"
         fill="#000"
         fill-rule="evenodd"
         stroke="none" />
    </g>
    <g
       id="g606"
       transform="matrix(1 0 0 1 31.608 -87.047)"
       fill="none"
       stroke="#000"
       stroke-width=".13">
      <path
         id="path608"
         d="m398.92 278.91v0.253h2.168v-0.253h-2.168z"
         fill="#000"
         fill-rule="evenodd"
         stroke="none" />
    </g>
    <g
       id="g610"
       transform="matrix(1 0 0 1 34.119 -87.047)"
       fill="none"
       stroke="#000"
       stroke-width=".13">
      <path
         id="path612"
         d="m388.08 270.71-0.072 0.303-0.119 0.216-0.166 0.133-0.195 0.044-0.234-0.065-0.183-0.195-0.123-0.317-0.04-0.439 0.04-0.436 0.119-0.321 0.184-0.194 0.237-0.069 0.173 0.036 0.148 0.101 0.115 0.162 0.08 0.224h0.342l-0.108-0.343-0.188-0.259-0.255-0.162-0.307-0.058-0.381 0.09-0.292 0.253-0.188 0.414-0.064 0.562 0.064 0.562 0.188 0.414 0.292 0.256 0.381 0.086 0.335-0.068 0.271-0.191 0.191-0.314 0.1-0.425h-0.345z"
         fill="#000"
         fill-rule="evenodd"
         stroke="none" />
    </g>
    <g
       id="g614"
       transform="matrix(1 0 0 1 31.608 -87.047)"
       fill="none"
       stroke="#000"
       stroke-width=".13">
      <path
         id="path616"
         d="m398.92 272.24v0.252h2.168v-0.252h-2.168z"
         fill="#000"
         fill-rule="evenodd"
         stroke="none" />
    </g>
    <g
       id="g618"
       transform="matrix(1 0 0 1 34.119 -87.047)"
       fill="none"
       stroke="#000"
       stroke-width=".13">
      <path
         id="path620"
         d="m387.5 262.48h-0.832v2.5h0.832l0.393-0.079 0.292-0.242 0.18-0.392 0.065-0.537-0.058-0.547-0.072-0.217-0.101-0.172-0.292-0.235-0.19-0.057-0.217-0.022zm-0.025 0.299 0.274 0.054 0.187 0.166 0.112 0.295 0.036 0.436-0.04 0.422-0.111 0.295-0.191 0.176-0.267 0.058h-0.472v-1.902h0.472z"
         fill="#000"
         fill-rule="evenodd"
         stroke="none" />
    </g>
    <g
       id="g622"
       transform="matrix(1 0 0 1 31.608 -87.047)"
       fill="none"
       stroke="#000"
       stroke-width=".13">
      <path
         id="path624"
         d="m398.92 265.57v0.252h2.168v-0.252h-2.168z"
         fill="#000"
         fill-rule="evenodd"
         stroke="none" />
    </g>
    <g
       id="g626"
       transform="matrix(1 0 0 1 34.119 -87.047)"
       fill="none"
       stroke="#000"
       stroke-width=".13">
      <path
         id="path628"
         d="m386.74 258.31h1.585v-0.302h-1.254v-0.847h1.117v-0.299h-1.117v-0.749h1.225v-0.303h-1.556v2.5z"
         fill="#000"
         fill-rule="evenodd"
         stroke="none" />
    </g>
    <g
       id="g630"
       transform="matrix(1 0 0 1 31.608 -87.047)"
       fill="none"
       stroke="#000"
       stroke-width=".13">
      <path
         id="path632"
         d="m398.92 258.91v0.253h2.168v-0.253h-2.168z"
         fill="#000"
         fill-rule="evenodd"
         stroke="none" />
    </g>
    <g
       id="g634"
       transform="matrix(1 0 0 1 34.119 -87.047)"
       fill="none"
       stroke="#000"
       stroke-width=".13">
      <path
         id="path636"
         d="m386.76 251.64h0.335v-1.149h1.051v-0.299h-1.051v-0.75h1.293v-0.302h-1.628v2.5z"
         fill="#000"
         fill-rule="evenodd"
         stroke="none" />
    </g>
    <g
       id="g638"
       transform="matrix(1 0 0 1 31.608 -87.047)"
       fill="none"
       stroke="#000"
       stroke-width=".13">
      <path
         id="path640"
         d="m398.92 252.24v0.252h2.168v-0.252h-2.168z"
         fill="#000"
         fill-rule="evenodd"
         stroke="none" />
    </g>
    <g
       id="g642"
       transform="matrix(1 0 0 1 34.119 -87.047)"
       fill="none"
       stroke="#000"
       stroke-width=".13">
      <path
         id="path644"
         d="m388.16 244.64 0.061 0.335h0.181v-1.351h-0.912v0.306h0.562v0.022l-0.043 0.331-0.115 0.245-0.177 0.155-0.22 0.051-0.245-0.065-0.19-0.195-0.123-0.32-0.043-0.44 0.039-0.436 0.123-0.32 0.194-0.195 0.263-0.068 0.181 0.036 0.147 0.101 0.108 0.169 0.062 0.227h0.356l-0.093-0.346-0.177-0.259-0.249-0.159-0.313-0.057-0.411 0.09-0.309 0.263-0.199 0.414-0.068 0.551 0.068 0.555 0.199 0.414 0.291 0.263 0.368 0.087 0.205-0.029 0.184-0.072 0.158-0.126 0.137-0.177z"
         fill="#000"
         fill-rule="evenodd"
         stroke="none" />
    </g>
    <g
       id="g646"
       transform="matrix(1 0 0 1 31.608 -87.047)"
       fill="none"
       stroke="#000"
       stroke-width=".13">
      <path
         id="path648"
         d="m398.92 245.57v0.252h2.168v-0.252h-2.168z"
         fill="#000"
         fill-rule="evenodd"
         stroke="none" />
    </g>
    <text
       id="text4183"
       x="301.2355"
       y="198.72655"
       fill="#000000"
       font-family="Arial"
       style="line-height:0%"><tspan
         id="tspan4185"
         x="301.2355"
         y="198.72655"
         font-size="2.5px"
         style="line-height:1.25">This drawing is our property; it can't be reproduced or communicated without our written consent.</tspan></text>
    <text
       id="text4415"
       x="304.01172"
       y="179.39999"
       fill="#000000"
       font-family="Arial"
       style="line-height:0%"><tspan
         id="tspan4417"
         x="304.01172"
         y="179.39999"
         font-size="7.9022px"
         style="line-height:1.25">A4</tspan></text>
    <g
       id="layer1"
       transform="matrix(.21138 0 0 .21138 405.73 169.73)">
      <g
         id="g3813"
         transform="matrix(.85064 0 0 .85064 187.83 -.196)"
         fill="none"
         stroke="#000"
         stroke-width="1.91">
        <path
           id="rect3663"
           d="m-216.14 7.2708v55.5h12.375v-21.719h8.75v-8.5625h-8.75v-9.2419h21.555v-15.946l-33.93-0.03125z" />
        <path
           id="path3659"
           d="m-161.05 23.812-7.1983 4.1299-3.1787-1.1031-3.0327-7.7507-4.7707 0.2507-2.176 8.0147-3.0455 1.4584-7.5959-3.3228-3.2083 3.5652 4.1299 7.1983-1.1286 3.1694-7.7507 3.0327 0.27618 4.78 8.0147 2.176 1.4584 3.0455-3.3483 7.5866 3.5652 3.2083 7.1982-4.1299 3.1949 1.1379 3.0073 7.7414 4.8054-0.26688 2.1505-8.024 3.0455-1.4584 7.6121 3.3576 3.2083-3.5652-4.1299-7.1983 1.1124-3.2042 7.7414-3.0073-0.24138-4.7961-8.024-2.1505-1.4584-3.0455 3.3321-7.6214zm-10.781 11.804 1.4776 0.85736 1.2802 1.1607 1.0249 1.3852 0.73729 1.5401 0.43349 1.6602 0.0718 1.7015-0.24575 1.701-0.56084 1.6148-0.89215 1.4938-1.1259 1.264-1.3852 1.0249-1.5401 0.73729-1.6602 0.43348-1.7108 0.09731-1.701-0.24573-1.6148-0.56085-1.4938-0.89215-1.2548-1.1514-1.0342-1.3597-0.73731-1.5401-0.42417-1.6857-0.0973-1.7108 0.24573-1.701 0.56086-1.6148 0.88284-1.4684 1.1353-1.2895 1.3852-1.0249 1.5401-0.73729 1.6857-0.42417 1.7015-0.07182 1.701 0.24573 1.6148 0.56085z" />
      </g>
    </g>
  </g>
  <g
     id="g3298"
     fill="#000000"
     font-family="Arial"
     letter-spacing="0px"
     word-spacing="0px">
    <text
       id="text3266"
       x="147.9312"
       y="160.67236"
       style="line-height:0%"
       freecad:editable="Designed_by_Name"
       freecad:autofill="author"><tspan
         id="tspan3268"
         x="147.9312"
         y="160.67236"
         font-size="3.95px"
         style="line-height:1.25">Designed by Name</tspan></text>
    <text
       id="text3270"
       x="147.93056"
       y="168.59135"
       style="line-height:0%"
       freecad:editable="FC-Date"
       freecad:autofill="date"><tspan
         id="tspan3272"
         x="147.93056"
         y="168.59135"
         font-size="3.95px"
         style="line-height:1.25">Date</tspan></text>
    <text
       id="text3274"
       x="154.46243"
       y="191.45177"
       text-align="center"
       text-anchor="middle"
       style="line-height:0%"
       freecad:editable="FC-SC"
       freecad:autofill="scale"><tspan
         id="tspan3276"
         x="154.46243"
         y="191.45177"
         font-size="3.95px"
         style="line-height:1.25">Scale</tspan></text>
    <text
       id="text3278"
       x="173.94231"
       y="191.44733"
       text-align="center"
       text-anchor="middle"
       style="line-height:0%"
       freecad:editable="Weight"><tspan
         id="tspan3280"
         x="173.94231"
         y="191.44733"
         font-size="3.95px"
         style="line-height:1.25">Weight</tspan></text>
    <text
       id="text3282"
       x="186.05237"
       y="158.72597"
       style="line-height:0%"
       freecad:editable="FC-Title"
       freecad:autofill="title"><tspan
         id="tspan3284"
         x="186.05237"
         y="158.72597"
         font-size="5.6444px"
         style="line-height:1.25">Title</tspan></text>
    <text
       id="text3286"
       x="185.99422"
       y="165.73558"
       style="line-height:0%"
       freecad:editable="Subtitle"><tspan
         id="tspan3288"
         x="185.99422"
         y="165.73558"
         font-size="3.9511px"
         style="line-height:1.25">Subtitle</tspan></text>
    <text
       id="text3290"
       x="185.6927"
       y="191.31752"
       style="line-height:0%"
       freecad:editable="Drawing_number"><tspan
         id="tspan3292"
         x="185.6927"
         y="191.31752"
         font-size="3.9511px"
         style="line-height:1.25">Drawing number</tspan></text>
    <text
       id="text3294"
       x="248.32477"
       y="191.45177"
       style="line-height:0%"
       freecad:editable="FC-SH"
       freecad:autofill="sheet"><tspan
         id="tspan3296"
         x="248.32477"
         y="191.45177"
         font-size="3.9511px"
         style="line-height:1.25">Sheet</tspan></text>
  </g>
</svg>
