<?xml version="1.0" encoding="UTF-8" standalone="no"?>
<svg
   id="svg2"
   width="297mm"
   height="210mm"
   version="1.1"
   viewBox="0 0 297 210"
   xmlns="http://www.w3.org/2000/svg"
   xmlns:svg="http://www.w3.org/2000/svg"
   xmlns:rdf="http://www.w3.org/1999/02/22-rdf-syntax-ns#"
   xmlns:cc="http://creativecommons.org/ns#"
   xmlns:dc="http://purl.org/dc/elements/1.1/"
   xmlns:freecad="https://www.freecad.org/wiki/index.php?title=Svg_Namespace">
  <defs
     id="defs1" />
  <metadata
     id="metadata849">
    <rdf:RDF>
      <cc:Work
         rdf:about="">
        <dc:format>image/svg+xml</dc:format>
        <dc:type
           rdf:resource="http://purl.org/dc/dcmitype/StillImage" />
        <dc:title />
      </cc:Work>
    </rdf:RDF>
  </metadata>
  <!-- Working Area 05x 05y - 292x 205y -->
  <rect
     style="display:inline;fill:none;stroke:#000000;stroke-width:0.35;stroke-opacity:1"
     id="rect100"
     width="287"
     height="200"
     x="5"
     y="5" />
  <!-- Title Area 200x 165y - 292x 205y  -->
  <rect
     style="display:inline;fill:none;stroke:#000000;stroke-width:0.35;stroke-opacity:1"
     id="rect200"
     width="92"
     height="40"
     x="200"
     y="165" />
  <path
     id="path200"
     d="M 200,193.5 H 292"
     fill="none"
     stroke="#000000"
     stroke-width="0.35" />
  <path
     id="path250"
     d="M 220,165 V 205"
     fill="none"
     stroke="#000000"
     stroke-width="0.35" />
  <path
     id="path251"
     d="M 280,193.5 V 205"
     fill="none"
     stroke="#000000"
     stroke-width="0.35" />
  <text
     x="265"
     y="195"
     id="text8"
     font-size="2.2px"
     font-family="'Trebuchet MS'"
     xml:space="default">SHEET</text>
  <g
     id="g999"
     transform="matrix(0.16,0,0,0.16,315.5,193.5)"
     fill="none"
     stroke="#000000"
     stroke-width="2">
    <path
       id="path98"
       d="m -216.14,7.2708 v 55.5 h 12.375 v -21.719 h 8.75 v -8.5625 h -8.75 v -9.2419 h 21.555 V 7.3014 l -33.93,-0.03125 z" />
    <path
       id="path99"
       d="m -161.05,23.812 -7.1983,4.1299 -3.1787,-1.1031 -3.0327,-7.7507 -4.7707,0.2507 -2.176,8.0147 -3.0455,1.4584 -7.5959,-3.3228 -3.2083,3.5652 4.1299,7.1983 -1.1286,3.1694 -7.7507,3.0327 0.27618,4.78 8.0147,2.176 1.4584,3.0455 -3.3483,7.5866 3.5652,3.2083 7.1982,-4.1299 3.1949,1.1379 3.0073,7.7414 4.8054,-0.26688 2.1505,-8.024 3.0455,-1.4584 7.6121,3.3576 3.2083,-3.5652 -4.1299,-7.1983 1.1124,-3.2042 7.7414,-3.0073 -0.24138,-4.7961 -8.024,-2.1505 -1.4584,-3.0455 3.3321,-7.6214 z m -10.781,11.804 1.4776,0.85736 1.2802,1.1607 1.0249,1.3852 0.73729,1.5401 0.43349,1.6602 0.0718,1.7015 -0.24575,1.701 -0.56084,1.6148 -0.89215,1.4938 -1.1259,1.264 -1.3852,1.0249 -1.5401,0.73729 -1.6602,0.43348 -1.7108,0.09731 -1.701,-0.24573 -1.6148,-0.56085 -1.4938,-0.89215 -1.2548,-1.1514 -1.0342,-1.3597 -0.73731,-1.5401 -0.42417,-1.6857 -0.0973,-1.7108 0.24573,-1.701 0.56086,-1.6148 0.88284,-1.4684 1.1353,-1.2895 1.3852,-1.0249 1.5401,-0.73729 1.6857,-0.42417 1.7015,-0.07182 1.701,0.24573 1.6148,0.56085 z" />
  </g>
  <!-- END  -->
  <path
     id="path104"
     d="m 167.50414,128.79049 h 119.07"
     fill="none"
     stroke="#000000"
     stroke-width="0.35" />
  <path
     id="path124"
     d="m 185.05414,154.79049 v -26"
     fill="none"
     stroke="#000000"
     stroke-width="0.35" />
  <path
     id="path126"
     d="m 205.55414,154.83049 v -42.795"
     fill="none"
     stroke="#000000"
     stroke-width="0.35" />
  <g
     id="g538"
     transform="translate(-52.44686,-128.20651)"
     fill="none"
     stroke="#000000"
     stroke-width="0.13">
    <path
       id="path540"
       d="m 221.31,271.59 h -0.197 l 0.044,0.23 0.108,0.168 0.166,0.102 0.225,0.036 0.223,-0.034 0.166,-0.095 0.106,-0.149 0.039,-0.197 -0.033,-0.177 -0.09,-0.115 -0.147,-0.075 -0.197,-0.057 -0.169,-0.041 -0.11,-0.047 -0.063,-0.069 -0.019,-0.109 0.019,-0.097 0.057,-0.073 0.086,-0.05 0.119,-0.017 0.121,0.021 0.095,0.059 0.063,0.097 0.03,0.132 h 0.197 v -0.004 l -0.035,-0.204 -0.101,-0.151 -0.16,-0.095 -0.217,-0.032 -0.194,0.032 -0.151,0.091 -0.098,0.14 -0.034,0.182 0.028,0.162 0.082,0.11 0.13,0.074 0.177,0.056 0.175,0.049 0.132,0.048 0.08,0.069 0.028,0.113 -0.026,0.114 -0.067,0.087 -0.102,0.054 -0.131,0.017 -0.147,-0.024 -0.113,-0.069 -0.071,-0.112 z m 1.993,-0.062 -0.043,0.181 -0.072,0.13 -0.099,0.08 -0.117,0.026 -0.14,-0.039 -0.111,-0.117 -0.073,-0.19 -0.024,-0.264 0.024,-0.261 0.071,-0.192 0.111,-0.117 0.142,-0.041 0.104,0.021 0.089,0.061 0.069,0.097 0.047,0.134 h 0.206 l -0.065,-0.205 -0.113,-0.156 -0.153,-0.097 -0.184,-0.035 -0.229,0.054 -0.175,0.152 -0.112,0.248 -0.039,0.337 0.039,0.338 0.112,0.248 0.175,0.154 0.229,0.051 0.201,-0.041 0.162,-0.114 0.115,-0.188 0.06,-0.255 z m 0.294,0.557 h 0.199 l 0.157,-0.441 h 0.599 l 0.158,0.441 h 0.203 l -0.549,-1.502 h -0.22 z m 0.426,-0.624 0.231,-0.662 0.231,0.662 z m 1.093,0.624 h 0.964 v -0.181 h -0.765 v -1.319 h -0.199 z m 1.286,0 h 0.951 v -0.181 h -0.752 v -0.508 h 0.67 v -0.179 h -0.67 v -0.45 h 0.735 v -0.182 h -0.934 z"
       fill="#000000"
       fill-rule="evenodd"
       stroke="none" />
  </g>
  <g
     id="g546"
     transform="translate(-54.60486,-128.20651)"
     fill="none"
     stroke="#000000"
     stroke-width="0.13">
    <path
       id="path548"
       d="m 241.24,272.08 h 0.19 l 0.216,-1.301 0.223,1.301 h 0.182 l 0.263,-1.502 h -0.173 l -0.186,1.278 -0.213,-1.278 h -0.189 l -0.209,1.278 -0.186,-1.278 h -0.177 z m 1.256,0 h 0.951 v -0.181 h -0.752 v -0.508 h 0.67 v -0.179 h -0.67 v -0.45 h 0.735 v -0.182 h -0.934 z m 1.655,-0.181 h -0.276 v 0.181 h 0.752 v -0.181 h -0.277 v -1.137 h 0.277 v -0.182 h -0.752 v 0.182 h 0.276 z m 1.797,-0.02 0.036,0.201 h 0.108 v -0.81 h -0.546 v 0.184 h 0.337 v 0.013 l -0.026,0.198 -0.069,0.147 -0.106,0.093 -0.132,0.031 -0.147,-0.039 -0.115,-0.117 -0.073,-0.192 -0.026,-0.264 0.024,-0.262 0.073,-0.192 0.117,-0.117 0.158,-0.041 0.108,0.022 0.088,0.06 0.065,0.102 0.037,0.136 h 0.214 l -0.056,-0.207 -0.106,-0.156 -0.149,-0.095 -0.188,-0.035 -0.247,0.054 -0.186,0.158 -0.118,0.249 -0.042,0.33 0.042,0.333 0.118,0.249 0.175,0.158 0.221,0.051 0.123,-0.017 0.11,-0.043 0.095,-0.076 z m 0.404,0.201 h 0.201 v -0.704 h 0.601 v 0.704 h 0.199 v -1.5 h -0.199 v 0.612 h -0.601 v -0.612 h -0.201 z m 1.703,0 h 0.199 v -1.318 h 0.454 v -0.182 h -1.109 v 0.182 h 0.456 z m 2.86,0.418 h 0.136 l -0.124,-0.23 -0.086,-0.239 -0.054,-0.253 -0.017,-0.255 0.017,-0.255 0.054,-0.251 0.086,-0.242 0.124,-0.229 h -0.136 l -0.158,0.237 -0.111,0.236 -0.064,0.246 -0.02,0.258 0.02,0.259 0.064,0.244 0.111,0.236 z m 0.721,-0.418 h 0.191 v -0.408 l 0.198,-0.192 0.342,0.6 h 0.214 l -0.426,-0.732 0.437,-0.428 h -0.24 l -0.525,0.523 v -0.914 h -0.191 z m 2.179,-0.051 v -1.109 h -0.181 v 0.188 l -0.15,-0.171 -0.09,-0.043 -0.102,-0.015 -0.184,0.043 -0.142,0.121 -0.093,0.194 -0.033,0.262 0.033,0.264 0.093,0.194 0.142,0.123 0.184,0.041 0.104,-0.015 0.086,-0.039 0.152,-0.164 v 0.164 l -0.018,0.13 -0.047,0.093 -0.091,0.054 -0.136,0.02 -0.119,-0.013 -0.084,-0.033 -0.05,-0.056 -0.015,-0.076 h -0.184 v 0.009 l 0.028,0.138 0.087,0.104 0.138,0.067 0.188,0.024 0.225,-0.033 0.149,-0.09 0.084,-0.158 z m -0.778,-0.53 0.019,-0.192 0.059,-0.143 0.091,-0.084 0.121,-0.031 0.127,0.031 0.095,0.084 0.059,0.143 0.021,0.192 -0.021,0.197 -0.059,0.14 -0.095,0.087 -0.127,0.028 -0.121,-0.028 -0.091,-0.087 -0.059,-0.142 z m 1.468,0.999 0.155,-0.238 0.11,-0.236 0.065,-0.244 0.022,-0.259 -0.022,-0.258 -0.065,-0.246 -0.11,-0.236 -0.155,-0.237 h -0.137 l 0.121,0.229 0.087,0.242 0.052,0.251 0.019,0.255 -0.019,0.255 -0.052,0.253 -0.089,0.239 -0.119,0.23 z"
       fill="#000000"
       fill-rule="evenodd"
       stroke="none" />
  </g>
  <g
     id="g550"
     transform="translate(-59.47086,-128.20651)"
     fill="none"
     stroke="#000000"
     stroke-width="0.13">
    <path
       id="path552"
       d="m 266.65,270.58 h -0.499 v 1.5 h 0.499 l 0.236,-0.047 0.175,-0.145 0.108,-0.236 0.039,-0.322 -0.035,-0.328 -0.043,-0.13 -0.06,-0.104 -0.175,-0.14 -0.115,-0.035 z m -0.015,0.18 0.165,0.032 0.112,0.1 0.067,0.177 0.022,0.261 -0.024,0.253 -0.067,0.178 -0.115,0.105 -0.16,0.035 h -0.283 v -1.141 z m 0.837,1.32 h 0.201 v -0.633 h 0.205 l 0.151,0.007 0.095,0.03 0.052,0.071 0.022,0.128 0.011,0.194 0.013,0.128 0.026,0.075 h 0.227 v -0.041 l -0.05,-0.06 -0.017,-0.113 -0.016,-0.242 -0.036,-0.179 -0.05,-0.056 -0.078,-0.041 0.087,-0.054 0.06,-0.076 0.039,-0.095 0.013,-0.115 -0.03,-0.181 -0.087,-0.136 -0.142,-0.082 -0.195,-0.029 h -0.501 z m 0.445,-1.316 0.132,0.013 0.093,0.041 0.058,0.076 0.02,0.119 -0.022,0.125 -0.058,0.076 -0.1,0.039 -0.136,0.01 h -0.231 v -0.499 z m 0.681,1.316 h 0.199 l 0.157,-0.441 h 0.599 l 0.158,0.441 h 0.203 l -0.549,-1.502 h -0.22 z m 0.426,-0.624 0.231,-0.662 0.231,0.662 z m 1.124,0.624 h 0.19 l 0.216,-1.301 0.222,1.301 h 0.182 l 0.264,-1.502 h -0.173 l -0.186,1.278 -0.214,-1.278 h -0.188 l -0.21,1.278 -0.186,-1.278 h -0.177 z m 1.61,-0.181 h -0.277 v 0.181 h 0.752 v -0.181 h -0.276 v -1.137 h 0.276 v -0.182 h -0.752 v 0.182 h 0.277 z m 0.908,0.181 h 0.179 v -1.229 l 0.575,1.229 h 0.231 v -1.5 h -0.181 v 1.23 l -0.569,-1.23 h -0.235 z m 2.189,-0.201 0.037,0.201 H 275 v -0.81 h -0.547 v 0.184 h 0.337 v 0.013 l -0.026,0.198 -0.069,0.147 -0.106,0.093 -0.132,0.031 -0.147,-0.039 -0.114,-0.117 -0.074,-0.192 -0.026,-0.264 0.024,-0.262 0.074,-0.192 0.116,-0.117 0.158,-0.041 0.108,0.022 0.089,0.06 0.065,0.102 0.036,0.136 h 0.214 l -0.056,-0.207 -0.106,-0.156 -0.149,-0.095 -0.188,-0.035 -0.246,0.054 -0.186,0.158 -0.119,0.249 -0.041,0.33 0.041,0.333 0.119,0.249 0.175,0.158 0.22,0.051 0.124,-0.017 0.11,-0.043 0.095,-0.076 z m 1.714,0.201 h 0.179 v -1.229 l 0.575,1.229 h 0.232 v -1.5 h -0.182 v 1.23 l -0.568,-1.23 h -0.236 z m 1.277,-0.57 0.031,0.27 0.095,0.192 0.16,0.111 0.231,0.038 0.229,-0.038 0.16,-0.111 0.095,-0.19 0.032,-0.272 v -0.93 h -0.201 v 0.941 l -0.019,0.183 -0.058,0.132 -0.1,0.078 -0.138,0.026 -0.143,-0.026 -0.099,-0.078 -0.059,-0.129 -0.017,-0.186 v -0.941 h -0.199 z m 1.278,0.57 h 0.166 v -1.361 l 0.281,1.361 h 0.186 l 0.279,-1.361 v 1.361 h 0.168 v -1.5 h -0.263 l -0.277,1.323 -0.274,-1.323 h -0.266 z m 2.111,-0.81 0.152,-0.125 0.039,-0.085 0.013,-0.103 -0.029,-0.163 -0.084,-0.116 -0.136,-0.072 -0.19,-0.026 h -0.534 v 1.5 h 0.564 l 0.201,-0.03 0.149,-0.088 0.093,-0.141 0.033,-0.19 -0.02,-0.128 -0.052,-0.106 -0.084,-0.077 z m -0.276,-0.067 h -0.294 v -0.443 h 0.311 l 0.117,0.013 0.082,0.039 0.05,0.067 0.017,0.099 -0.02,0.1 -0.051,0.069 -0.089,0.043 z m 0.047,0.698 h -0.341 v -0.517 h 0.322 l 0.136,0.016 0.097,0.045 0.059,0.078 0.019,0.112 -0.019,0.119 -0.054,0.082 -0.091,0.05 z m 0.806,0.179 h 0.951 v -0.181 h -0.752 v -0.508 h 0.67 v -0.179 h -0.67 v -0.45 h 0.735 v -0.182 h -0.934 z m 1.273,0 h 0.202 v -0.633 h 0.205 l 0.151,0.007 0.095,0.03 0.052,0.071 0.022,0.128 0.011,0.194 0.012,0.128 0.026,0.075 h 0.227 v -0.041 l -0.049,-0.06 -0.018,-0.113 -0.015,-0.242 -0.037,-0.179 -0.049,-0.056 -0.078,-0.041 0.086,-0.054 0.061,-0.076 0.039,-0.095 0.013,-0.115 -0.03,-0.181 -0.087,-0.136 -0.143,-0.082 -0.194,-0.029 h -0.502 z m 0.446,-1.316 0.132,0.013 0.093,0.041 0.058,0.076 0.019,0.119 -0.021,0.125 -0.059,0.076 -0.099,0.039 -0.136,0.01 h -0.231 v -0.499 z"
       fill="#000000"
       fill-rule="evenodd"
       stroke="none" />
  </g>
  <g
     id="g558"
     transform="translate(-52.44686,-128.20651)"
     fill="none"
     stroke="#000000"
     stroke-width="0.13">
    <path
       id="path560"
       d="m 221.31,258.59 h -0.197 l 0.044,0.23 0.108,0.168 0.166,0.102 0.225,0.036 0.223,-0.034 0.166,-0.095 0.106,-0.149 0.039,-0.197 -0.033,-0.177 -0.09,-0.115 -0.147,-0.075 -0.197,-0.057 -0.169,-0.041 -0.11,-0.047 -0.063,-0.069 -0.019,-0.109 0.019,-0.097 0.057,-0.073 0.086,-0.05 0.119,-0.017 0.121,0.021 0.095,0.059 0.063,0.097 0.03,0.132 h 0.197 v -0.004 l -0.035,-0.204 -0.101,-0.151 -0.16,-0.095 -0.217,-0.032 -0.194,0.032 -0.151,0.091 -0.098,0.14 -0.034,0.182 0.028,0.162 0.082,0.11 0.13,0.074 0.177,0.056 0.175,0.049 0.132,0.048 0.08,0.069 0.028,0.113 -0.026,0.114 -0.067,0.087 -0.102,0.054 -0.131,0.017 -0.147,-0.024 -0.113,-0.069 -0.071,-0.112 z m 1.543,0.314 h -0.276 v 0.181 h 0.752 v -0.181 h -0.277 v -1.137 h 0.277 v -0.182 h -0.752 v 0.182 h 0.276 z m 0.863,0.181 h 1.076 v -0.181 h -0.839 l 0.839,-1.148 v -0.171 h -1.018 v 0.182 h 0.793 l -0.851,1.146 z m 1.385,0 h 0.951 v -0.181 H 225.3 v -0.508 h 0.67 v -0.179 h -0.67 v -0.45 h 0.735 v -0.182 h -0.934 z"
       fill="#000000"
       fill-rule="evenodd"
       stroke="none" />
  </g>
  <g
     id="g570"
     transform="translate(-52.44686,-128.20651)"
     fill="none"
     stroke="#000000"
     stroke-width="0.13">
    <path
       id="path572"
       d="m 221.65,250.08 h -0.499 v 1.5 h 0.499 l 0.236,-0.047 0.175,-0.145 0.108,-0.236 0.039,-0.322 -0.035,-0.328 -0.043,-0.13 -0.06,-0.104 -0.175,-0.14 -0.115,-0.035 z m -0.015,0.18 0.165,0.032 0.112,0.1 0.067,0.177 0.022,0.261 -0.024,0.253 -0.067,0.178 -0.115,0.105 -0.16,0.035 h -0.283 v -1.141 z m 0.662,1.32 h 0.199 l 0.157,-0.441 h 0.599 l 0.158,0.441 h 0.203 l -0.549,-1.502 h -0.22 z m 0.425,-0.624 0.232,-0.662 0.231,0.662 z m 1.433,0.624 h 0.199 v -1.318 h 0.454 v -0.182 h -1.109 v 0.182 h 0.456 z m 0.947,0 h 0.951 v -0.181 h -0.752 v -0.508 h 0.67 v -0.179 h -0.67 v -0.45 h 0.735 v -0.182 h -0.934 z m 1.606,0 h 0.298 v -0.322 h -0.298 z m 0,-0.838 h 0.298 v -0.322 h -0.298 z"
       fill="#000000"
       fill-rule="evenodd"
       stroke="none" />
  </g>
  <g
     id="g578"
     transform="translate(-52.44686,-114.15351)"
     fill="none"
     stroke="#000000"
     stroke-width="0.13">
    <path
       id="path580"
       d="m 221.65,227.58 h -0.499 v 1.5 h 0.499 l 0.236,-0.047 0.175,-0.145 0.108,-0.236 0.039,-0.322 -0.035,-0.328 -0.043,-0.13 -0.06,-0.104 -0.175,-0.14 -0.115,-0.035 z m -0.015,0.18 0.165,0.032 0.112,0.1 0.067,0.177 0.022,0.261 -0.024,0.253 -0.067,0.178 -0.115,0.105 -0.16,0.035 h -0.283 v -1.141 z m 0.865,1.32 h 0.951 v -0.181 h -0.752 v -0.508 h 0.67 v -0.179 h -0.67 v -0.45 h 0.735 V 227.58 H 222.5 Z m 1.413,-0.495 h -0.196 l 0.043,0.23 0.108,0.168 0.166,0.102 0.225,0.036 0.223,-0.034 0.166,-0.095 0.106,-0.149 0.039,-0.197 -0.032,-0.177 -0.091,-0.115 -0.147,-0.075 -0.197,-0.057 -0.168,-0.041 -0.111,-0.047 -0.062,-0.069 -0.02,-0.109 0.02,-0.097 0.056,-0.073 0.086,-0.05 0.119,-0.017 0.121,0.021 0.095,0.059 0.063,0.097 0.03,0.132 h 0.197 v -0.005 l -0.035,-0.203 -0.101,-0.151 -0.16,-0.095 -0.216,-0.032 -0.195,0.032 -0.151,0.091 -0.097,0.14 -0.035,0.182 0.028,0.162 0.082,0.11 0.13,0.074 0.177,0.056 0.175,0.049 0.132,0.048 0.08,0.069 0.028,0.113 -0.026,0.114 -0.067,0.087 -0.101,0.054 -0.132,0.017 -0.147,-0.024 -0.112,-0.069 -0.072,-0.112 z m 1.544,0.314 h -0.277 v 0.181 h 0.752 v -0.181 h -0.277 v -1.137 h 0.277 v -0.182 h -0.752 v 0.182 h 0.277 z m 1.796,-0.02 0.037,0.201 h 0.108 v -0.81 h -0.547 v 0.184 h 0.337 v 0.013 l -0.026,0.198 -0.069,0.147 -0.106,0.093 -0.132,0.031 -0.147,-0.039 -0.114,-0.117 -0.074,-0.192 -0.026,-0.264 0.024,-0.262 0.073,-0.192 0.117,-0.117 0.158,-0.041 0.108,0.022 0.089,0.06 0.064,0.102 0.037,0.136 h 0.214 l -0.056,-0.207 -0.106,-0.156 -0.149,-0.095 -0.188,-0.035 -0.247,0.054 -0.185,0.158 -0.119,0.249 -0.041,0.33 0.041,0.333 0.119,0.249 0.175,0.158 0.22,0.051 0.123,-0.017 0.111,-0.043 0.095,-0.076 z m 0.413,0.201 h 0.179 v -1.229 l 0.575,1.229 h 0.231 v -1.5 h -0.181 v 1.23 l -0.569,-1.23 h -0.235 z m 1.34,0 h 0.951 v -0.181 h -0.752 v -0.508 h 0.67 v -0.179 h -0.67 v -0.45 h 0.734 v -0.182 h -0.933 z m 1.753,-1.5 h -0.5 v 1.5 h 0.5 l 0.235,-0.047 0.175,-0.145 0.108,-0.236 0.039,-0.322 -0.034,-0.328 -0.044,-0.13 -0.06,-0.104 -0.175,-0.14 -0.115,-0.035 z m -0.016,0.18 0.165,0.032 0.112,0.1 0.067,0.177 0.022,0.261 -0.024,0.253 -0.067,0.178 -0.115,0.105 -0.16,0.035 h -0.283 v -1.141 z m 2.89,0.51 0.152,-0.125 0.038,-0.085 0.013,-0.104 -0.028,-0.162 -0.084,-0.116 -0.136,-0.072 -0.19,-0.026 h -0.534 v 1.5 h 0.564 l 0.201,-0.03 0.149,-0.088 0.093,-0.141 0.032,-0.19 -0.019,-0.128 -0.052,-0.106 -0.084,-0.077 z m -0.276,-0.067 h -0.294 v -0.443 h 0.311 l 0.117,0.013 0.082,0.039 0.049,0.067 0.018,0.099 -0.02,0.1 -0.052,0.069 -0.088,0.043 z m 0.047,0.698 h -0.341 v -0.517 h 0.322 l 0.136,0.016 0.097,0.045 0.058,0.078 0.02,0.112 -0.02,0.119 -0.054,0.082 -0.09,0.05 z m 1.373,0.179 v -0.607 l 0.492,-0.895 h -0.224 l -0.37,0.711 -0.374,-0.711 h -0.24 l 0.515,0.908 v 0.594 z m 1.039,0 h 0.299 v -0.322 h -0.299 z m 0,-0.838 h 0.299 v -0.322 h -0.299 z"
       fill="#000000"
       fill-rule="evenodd"
       stroke="none" />
  </g>
  <g
     id="g618"
     transform="translate(-98.52686,-128.20651)"
     fill="none"
     stroke="#000000"
     stroke-width="0.13" />
  <g
     id="g630"
     transform="translate(-101.03786,-128.20651)"
     fill="none"
     stroke="#000000"
     stroke-width="0.13" />
  <text
     x="171.47568"
     y="138.26649"
     id="text1"
     xml:space="default"
     font-size="8px"
     font-family="Arial"
     fill="#000000">A4</text>
  <text
     id="text3266"
     x="169.63348"
     y="120.07412"
     style="line-height:0%;font-family:Arial;letter-spacing:0px;word-spacing:0px;fill:#000000"
     freecad:editable="Designed_by_Name"
     freecad:autofill="author"><tspan
       id="tspan3268"
       x="169.63348"
       y="120.07412"
       font-size="3.95px"
       style="line-height:1.25">Designed by Name</tspan></text>
  <text
     id="text3270"
     x="169.63284"
     y="127.99311"
     style="line-height:0%;font-family:Arial;letter-spacing:0px;word-spacing:0px;fill:#000000"
     freecad:editable="FC-Date"
     freecad:autofill="date"><tspan
       id="tspan3272"
       x="169.63284"
       y="127.99311"
       font-size="3.95px"
       style="line-height:1.25">Date</tspan></text>
  <text
     id="text3274"
     x="176.16472"
     y="150.85353"
     text-align="center"
     text-anchor="middle"
     style="line-height:0%;font-family:Arial;letter-spacing:0px;word-spacing:0px;fill:#000000"
     freecad:editable="FC-SC"
     freecad:autofill="scale"><tspan
       id="tspan3276"
       x="176.16472"
       y="150.85353"
       font-size="3.95px"
       style="line-height:1.25">Scale</tspan></text>
  <text
     id="text3278"
     x="195.64459"
     y="150.84909"
     text-align="center"
     text-anchor="middle"
     style="line-height:0%;font-family:Arial;letter-spacing:0px;word-spacing:0px;fill:#000000"
     freecad:editable="Weight"><tspan
       id="tspan3280"
       x="195.64459"
       y="150.84909"
       font-size="3.95px"
       style="line-height:1.25">Weight</tspan></text>
  <text
     id="text3282"
     x="207.75465"
     y="118.12772"
     style="line-height:0%;font-family:Arial;letter-spacing:0px;word-spacing:0px;fill:#000000"
     freecad:editable="FC-Title"
     freecad:autofill="title"><tspan
       id="tspan3284"
       x="207.75465"
       y="118.12772"
       font-size="5.6444px"
       style="line-height:1.25">Title</tspan></text>
  <text
     id="text3286"
     x="207.6965"
     y="125.13734"
     style="line-height:0%;font-family:Arial;letter-spacing:0px;word-spacing:0px;fill:#000000"
     freecad:editable="Subtitle"><tspan
       id="tspan3288"
       x="207.6965"
       y="125.13734"
       font-size="3.9511px"
       style="line-height:1.25">Subtitle</tspan></text>
  <text
     id="text3290"
     x="207.39499"
     y="150.71928"
     style="line-height:0%;font-family:Arial;letter-spacing:0px;word-spacing:0px;fill:#000000"
     freecad:editable="Drawing_number"><tspan
       id="tspan3292"
       x="207.39499"
       y="150.71928"
       font-size="3.9511px"
       style="line-height:1.25">Drawing number</tspan></text>
  <text
     id="text3294"
     x="270.02707"
     y="150.85353"
     style="line-height:0%"
     freecad:editable="FC-SH"
     freecad:autofill="sheet"
     font-family="Arial"
     fill="#000000"
     color="#000000"><tspan
       id="tspan3296"
       x="270.02707"
       y="150.85353"
       font-size="4px"
       style="line-height:1.25">Sheet</tspan></text>
</svg>
